Coordinates																		
version=1																		
nRows=53																		
nColumns=19																		
inDegrees=yes																		
																		
"Units are S.I. units (second, meters, Newtons, ...)"																		
"If the header above contains a line with 'inDegrees', this indicates whether rotational values are in degrees (yes) or radians (no)."																		
																		
endheader																		
time	pelvis_tilt_global	pelvis_list_global	pelvis_rotation_global	pelvis_tx_global	pelvis_ty_global	pelvis_tz_global	hip_flexion_r	hip_adduction_r	hip_rotation_r	knee_flexion_r	ankle_dorsiflexion_r	hip_flexion_l	hip_adduction_l	hip_rotation_l	knee_flexion_l	ankle_dorsiflexion_l	pelvis_tilt	pelvis_rotation
1.23	-11.83326454	0	0	1.0244164	0.63045076	-0.3378771	31.78620418	0	0	-8.33333175	4.3820153	-1.74616575	0	0	-47.28723477	-13.93831988	4.00185635	0
1.24	-11.76777868	0	0	1.02352634	0.62449952	-0.33791931	31.6795693	0	0	-9.15061771	4.45298092	0.50967618	0	0	-53.41379489	-12.94893087	3.59510556	0
1.25	-11.85007613	0	0	1.02238639	0.61729648	-0.33797205	31.84555547	0	0	-10.73308342	3.2632874	3.08060651	0	0	-59.48107914	-12.09226781	3.38186285	0
1.26	-11.93780918	0	0	1.02114366	0.60919556	-0.33788314	32.21160767	0	0	-13.24622899	1.09285016	5.72535417	0	0	-65.3086101	-11.05562987	3.2134264	0
1.27	-11.99776878	0	0	1.01961676	0.60052197	-0.33763874	32.8671005	0	0	-16.86460043	-0.4690725	8.38550409	0	0	-70.86744801	-9.56366711	3.00920868	0
1.28	-12.08092146	0	0	1.01732756	0.59159968	-0.33738483	33.96256994	0	0	-21.63407155	0.21665437	11.16732262	0	0	-76.21162631	-7.60984333	2.73375688	0
1.29	-12.18599864	0	0	1.01398727	0.58285109	-0.33733748	35.43319345	0	0	-27.24707072	3.1769601	14.13797639	0	0	-81.3217219	-5.48805088	2.32176534	0
1.3	-12.19546379	0	0	1.00990397	0.57481839	-0.33764062	36.79810271	0	0	-32.90249412	6.98780708	17.18824359	0	0	-86.0250557	-3.56884354	1.67824497	0
1.31	-12.04266472	0	0	1.00570342	0.56794223	-0.33821701	37.50174735	0	0	-37.69271273	10.39317921	20.20767936	0	0	-90.10116112	-2.02790817	0.83740522	0
1.32	-11.82794661	0	0	1.0018288	0.56239065	-0.33881516	37.3632837	0	0	-41.14393462	13.19587059	23.24190067	0	0	-93.42231082	-0.77541568	-0.00127669	0
1.33	-11.71321054	0	0	0.99839156	0.55817073	-0.3392686	36.57761799	0	0	-43.31134839	15.75797804	26.40623836	0	0	-95.98263493	0.36350549	-0.64517152	0
1.34	-11.76663143	0	0	0.99534241	0.5553137	-0.33967533	35.41302112	0	0	-44.51361086	18.22145491	29.72269203	0	0	-97.81661166	1.4196249	-1.04389634	0
1.35	-11.89853944	0	0	0.99271038	0.55397792	-0.34026094	33.93350392	0	0	-45.0030025	20.37954	33.02695863	0	0	-98.90859552	2.2529565	-1.29754033	0
1.36	-11.97824772	0	0	0.990645	0.55433235	-0.34113788	32.02686022	0	0	-44.82445234	22.01584336	36.08446028	0	0	-99.2013662	2.73941446	-1.51385491	0
1.37	-11.9763599	0	0	0.98930228	0.55637862	-0.34220293	29.61281439	0	0	-43.89488233	23.10111724	38.76606801	0	0	-98.66505982	2.94265716	-1.68645321	0
1.38	-11.96340111	0	0	0.98874983	0.55992136	-0.3432245	26.75510095	0	0	-42.17519884	23.67886454	41.08100268	0	0	-97.33358515	3.0914015	-1.72050092	0
1.39	-12.00091689	0	0	0.98894194	0.5646953	-0.34399225	23.59173202	0	0	-39.76315518	23.69215815	43.06998966	0	0	-95.28373515	3.3879524	-1.56246798	0
1.4	-12.06234768	0	0	0.98975541	0.57050372	-0.3444422	20.22188448	0	0	-36.86093635	22.97323093	44.71248194	0	0	-92.59309844	3.85147428	-1.27279823	0
1.41	-12.05578896	0	0	0.99106556	0.57723343	-0.34465404	16.6776749	0	0	-33.67792028	21.38741667	45.92875374	0	0	-89.31498395	4.36167942	-0.98920875	0
1.42	-11.9491621	0	0	0.99277555	0.58468643	-0.34477552	13.04110143	0	0	-30.39602087	18.93238104	46.69875265	0	0	-85.48633209	4.80079546	-0.77738118	0
1.43	-11.79888553	0	0	0.99480379	0.59252974	-0.34492127	9.48021248	0	0	-27.19322974	15.72123811	47.08312833	0	0	-81.13983886	5.15174192	-0.60158967	0
1.44	-11.6941749	0	0	0.99703772	0.60038007	-0.34511223	6.18553392	0	0	-24.244041	11.89123985	47.17224438	0	0	-76.31507786	5.49691611	-0.39207929	0
1.45	-11.67869977	0	0	0.99931386	0.60794385	-0.34531688	3.26691398	0	0	-21.67311681	7.55665494	47.02091505	0	0	-71.05064537	5.89877928	-0.13060443	0
1.46	-11.72394456	0	0	1.00144192	0.61507179	-0.3455609	0.72295512	0	0	-19.53715506	2.87439397	46.62201561	0	0	-65.36779913	6.30419903	0.1268464	0
1.47	-11.76787463	0	0	1.00326869	0.6216918	-0.34597909	-1.49777351	0	0	-17.86617093	-1.88510074	45.9344855	0	0	-59.27156473	6.53042399	0.30040354	0
1.48	-11.7537866	0	0	1.00477194	0.62772995	-0.34673571	-3.44761365	0	0	-16.6893673	-6.38814423	44.91072717	0	0	-52.78659636	6.36688296	0.34143485	0
1.49	-11.67316366	0	0	1.00607466	0.6330228	-0.34788142	-5.12115304	0	0	-16.06309689	-10.36074989	43.54858233	0	0	-45.99903816	5.7286389	0.28199253	0
1.5	-11.5602634	0	0	1.00732831	0.63733303	-0.34927139	-6.44943175	0	0	-16.08857814	-13.68334683	41.91709472	0	0	-39.07862403	4.75237099	0.20497704	0
1.51	-11.44395711	0	0	1.00857822	0.64047532	-0.350635	-7.35357999	0	0	-16.90580543	-16.36205818	40.11642583	0	0	-32.25031555	3.70931835	0.15716692	0
1.52	-11.31814013	0	0	1.00975271	0.64240869	-0.35173591	-7.80761079	0	0	-18.62901742	-18.4198394	38.23549819	0	0	-25.76344529	2.78992458	0.11160846	0
1.53	-11.15267419	0	0	1.01077843	0.64321692	-0.35247614	-7.86421845	0	0	-21.25212737	-19.79561912	36.35311474	0	0	-19.90303765	1.95541935	0.01038787	0
1.54	-10.94144226	0	0	1.01164401	0.6430016	-0.35289905	-7.60037335	0	0	-24.63204716	-20.36598274	34.60174662	0	0	-15.01119133	1.0511947	-0.15671334	0
1.55	-10.73422582	0	0	1.01232819	0.64178973	-0.35310435	-7.0330553	0	0	-28.59098995	-20.07320166	33.16154532	0	0	-11.37745313	0.09409278	-0.32751366	0
1.56	-10.60383044	0	0	1.0127288	0.63953721	-0.35315637	-6.113112	0	0	-33.01424084	-19.05092393	32.17093621	0	0	-9.08894221	-0.55663224	-0.42715229	0
1.57	-10.60385847	0	0	1.01271841	0.63616576	-0.35308153	-4.77687383	0	0	-37.8564596	-17.62468814	31.6628519	0	0	-8.0372647	-0.39570929	-0.41234798	0
1.58	-10.73616741	0	0	1.01229116	0.63164341	-0.35294688	-3.02599206	0	0	-43.06640116	-16.18160149	31.55064164	0	0	-8.02167454	0.65836109	-0.28354095	0
1.59	-10.95476446	0	0	1.01164199	0.62600833	-0.35287296	-0.95661782	0	0	-48.52143894	-15.00018732	31.67701274	0	0	-8.85142698	1.84536895	-0.06438879	0
1.6	-11.20457634	0	0	1.01105546	0.61931156	-0.35293744	1.29163584	0	0	-54.04550113	-14.13474597	31.91614642	0	0	-10.41738247	2.04033601	0.22665849	0
1.61	-11.44871924	0	0	1.01063783	0.61162917	-0.35310757	3.60954904	0	0	-59.48377964	-13.41565668	32.25176789	0	0	-12.70724243	0.94105464	0.56358303	0
1.62	-11.70145032	0	0	1.01008225	0.60312829	-0.35331969	6.00119757	0	0	-64.77526917	-12.56672152	32.84164165	0	0	-15.85686399	-0.25673334	0.91235229	0
1.63	-12.00449656	0	0	1.0087995	0.59413793	-0.35358435	8.54663782	0	0	-69.93255505	-11.37910075	33.92493225	0	0	-20.10801839	0.22151898	1.21817009	0
1.64	-12.36439515	0	0	1.0064331	0.58511721	-0.35396174	11.27703363	0	0	-74.942586	-9.83136025	35.53127075	0	0	-25.40888339	2.91877689	1.41297326	0
1.65	-12.71889234	0	0	1.00323156	0.57656904	-0.35443939	14.11450935	0	0	-79.69609885	-8.06454037	37.25130377	0	0	-31.05295429	6.72102339	1.44968083	0
1.66	-13.02110244	0	0	0.99979	0.56891879	-0.35484982	17.01028832	0	0	-84.02998172	-6.26900017	38.4956394	0	0	-36.00629526	10.26182337	1.38684576	0
1.67	-13.27527525	0	0	0.99654842	0.56248695	-0.35497314	20.00257657	0	0	-87.80851775	-4.55453383	38.91370746	0	0	-39.60689618	13.12748034	1.33712714	0
1.68	-13.50930848	0	0	0.99358604	0.55754472	-0.3547289	23.13472567	0	0	-90.96899427	-2.93965341	38.51880765	0	0	-41.8103345	15.62029584	1.34774429	0
1.69	-13.74221394	0	0	0.99076808	0.55431694	-0.35424926	26.3836769	0	0	-93.4969153	-1.39919649	37.52513632	0	0	-42.92954058	17.94418469	1.37996451	0
1.7	-13.96426055	0	0	0.98801046	0.5529042	-0.35375193	29.66145838	0	0	-95.37293982	0.06441987	36.11116596	0	0	-43.26347065	19.93494739	1.37782116	0
1.71	-14.13705703	0	0	0.98544245	0.55326924	-0.35338432	32.83179289	0	0	-96.54307717	1.41016167	34.29609871	0	0	-42.91682778	21.34572237	1.3213551	0
1.72	-14.22604362	0	0	0.98333089	0.55529472	-0.35320345	35.75066879	0	0	-96.94475304	2.59242433	32.00991084	0	0	-41.87250746	22.12522098	1.24010197	0
1.73	-14.23743074	0	0	0.98188557	0.55882569	-0.35323039	38.32858212	0	0	-96.55549118	3.59379185	29.24528099	0	0	-40.14578121	22.37281753	1.19999737	0
1.74	-14.22352842	0	0	0.98114975	0.56367872	-0.35345489	40.56401936	0	0	-95.41067519	4.42499745	26.11788319	0	0	-37.83325044	22.13560431	1.27529947	0
1.75	-14.2418892	0	0	0.98105817	0.56963519	-0.3538264	42.49943226	0	0	-93.58129994	5.12302294	22.79447164	0	0	-35.0741507	21.29954209	1.51009381	0
